{"title":"Jannat 2 2012 Hindi BRRip 720P x264 ...Hon3y","uid":7565092,"size":1839504607,"categoryP":"video","categoryS":"hd___movies","magnet":"?xt=urn:btih:8ea742d57ba7667bcdff51e20e8c06b8e03e31e6&amp;dn=Jannat+2+2012+Hindi+BRRip+720P+x264+...Hon3y&amp;tr=udp%3A%2F%2Ftracker.openbittorrent.com%3A80&amp;tr=udp%3A%2F%2Fopen.demonii.com%3A1337&amp;tr=udp%3A%2F%2Ftracker.coppersurfer.tk%3A6969&amp;tr=udp%3A%2F%2Fexodus.desync.com%3A6969","seeders":0,"leechers":0,"uploader":"honey8ee","files":-1,"time":1345840122,"description":" &lt;a href=&quot;http://www.imdb.com/title/tt2319889/&quot; rel=&quot;nofollow&quot; target=&quot;_NEW&quot;&gt;http://www.imdb.com/title/tt2319889/&lt;/a&gt;\n\nFormat : Matroska (MKv)\nFormat version : Version 2\nFile size : 1.71 GiB\nDuration : 2h 14mn\nOverall bit rate : 1 821 Kbps\nWriting library : libebml v1.2.0 + libmatroska v1.1.0\n\nVideo\n\nID : 1\nFormat : AVC\nFormat/Info : Advanced Video Codec\nFormat profile : &lt;a class=&quot;__cf_email__&quot; href=&quot;/cdn-cgi/l/email-protection&quot; data-cfemail=&quot;3c74555b547c7008120d&quot;&gt;[email&amp;#160;protected]&lt;/a&gt;&lt;script data-cfhash='f9e31' type=&quot;text/javascript&quot;&gt;\n/* &lt;![CDATA[ */!function(){try{var t=&quot;currentScript&quot;in document?document.currentScript:function(){for(var t=document.getElementsByTagName(&quot;script&quot;),e=t.length;e--;)if(t[e].getAttribute(&quot;data-cfhash&quot;))return t[e]}();if(t&amp;&amp;t.previousSibling){var e,r,n,i,c=t.previousSibling,a=c.getAttribute(&quot;data-cfemail&quot;);if(a){for(e=&quot;&quot;,r=parseInt(a.substr(0,2),16),n=2;a.length-n;n+=2)i=parseInt(a.substr(n,2),16)^r,e+=String.fromCharCode(i);e=document.createTextNode(e),c.parentNode.replaceChild(e,c)}t.parentNode.removeChild(t);}}catch(u){}}()/* ]]&gt; */&lt;/script&gt;\nFormat settings, CABAC : Yes\nFormat settings, ReFrames : 4 frames\nBit rate : 1 500 Kbps\nWidth : 1 280 pixels\nHeight : 544 pixels\nDisplay aspect ratio : 2.35:1\nFrame rate : 24.000 fps\nStream size : 1.37 GiB (80%)\n\n\nAudio\n\nID : 2\nFormat : AC-3\nFormat/Info : Audio Coding 3\nBit rate mode : Constant\nBit rate : 320 Kbps\nChannel(s) : 6 channels\nChannel positions : Front: L C R, Side: L R, LFE\nSampling rate : 48.0 KHz\nStream size : 308 MiB (18%)\n\n &lt;a href=&quot;\nhttp://www.shotpix.com/images/32663698041927211686.png&quot; rel=&quot;nofollow&quot; target=&quot;_NEW&quot;&gt;\nhttp://www.shotpix.com/images/32663698041927211686.png&lt;/a&gt;\n &lt;a href=&quot;\nhttp://www.shotpix.com/images/95330865241986930706.png&quot; rel=&quot;nofollow&quot; target=&quot;_NEW&quot;&gt;\nhttp://www.shotpix.com/images/95330865241986930706.png&lt;/a&gt;\n &lt;a href=&quot;\nhttp://www.shotpix.com/images/91683344512859659062.png&quot; rel=&quot;nofollow&quot; target=&quot;_NEW&quot;&gt;\nhttp://www.shotpix.com/images/91683344512859659062.png&lt;/a&gt;\n &lt;a href=&quot;\nhttp://www.shotpix.com/images/70941712036259900672.png&quot; rel=&quot;nofollow&quot; target=&quot;_NEW&quot;&gt;\nhttp://www.shotpix.com/images/70941712036259900672.png&lt;/a&gt;\n &lt;a href=&quot;\nhttp://www.shotpix.com/images/86387058728800387526.png&quot; rel=&quot;nofollow&quot; target=&quot;_NEW&quot;&gt;\nhttp://www.shotpix.com/images/86387058728800387526.png&lt;/a&gt;\n &lt;a href=&quot;\nhttp://www.shotpix.com/images/82021591750232288270.png&quot; rel=&quot;nofollow&quot; target=&quot;_NEW&quot;&gt;\nhttp://www.shotpix.com/images/82021591750232288270.png&lt;/a&gt;\n","torrent":{"xt":"urn:btih:8ea742d57ba7667bcdff51e20e8c06b8e03e31e6","amp;dn":"Jannat+2+2012+Hindi+BRRip+720P+x264+...Hon3y","amp;tr":["udp%3A%2F%2Ftracker.openbittorrent.com%3A80","udp%3A%2F%2Fopen.demonii.com%3A1337","udp%3A%2F%2Ftracker.coppersurfer.tk%3A6969","udp%3A%2F%2Fexodus.desync.com%3A6969"],"infoHash":"8ea742d57ba7667bcdff51e20e8c06b8e03e31e6","infoHashBuffer":{"type":"Buffer","data":[142,167,66,213,123,167,102,123,205,255,81,226,14,140,6,184,224,62,49,230]},"announce":[],"urlList":[]}}